<svg width="672" height="398" viewBox="0 0 672 398" fill="none" xmlns="http://www.w3.org/2000/svg">
<path d="M571.241 13.141C494.392 -27.7584 449.8 39.2369 366.452 46.2089C283.102 53.1809 268.015 6.21981 186.794 17.2519C114.065 27.1298 89.9074 90.1808 56.2628 158.501C22.6181 226.821 17.6197 203.694 2.32728 271.086C-12.9669 338.477 52.1255 397.928 52.1255 397.928H606.012C638.892 395.14 670.138 358.003 671.795 301.295C674.969 192.593 640.061 194.863 638.532 147.922C637.003 100.981 648.089 54.0405 571.241 13.141Z" fill="white"/>
<path d="M214.273 366.116H108.476C106.632 366.116 105.137 364.388 105.137 362.255V98.3315C105.137 96.1999 106.631 94.4706 108.476 94.4706H214.273C216.117 94.4706 217.612 96.1978 217.612 98.3315V362.255C217.612 364.386 216.117 366.116 214.273 366.116Z" fill="#4188E4"/>
<path d="M210.891 116.624H111.884V177.922H210.891V116.624Z" fill="#142666"/>
<path d="M210.892 183.506H111.884V244.803H210.892V183.506Z" fill="#142666"/>
<path d="M210.892 250.387H111.884V311.685H210.892V250.387Z" fill="#142666"/>
<path d="M436.26 366.116H241.926C240.083 366.116 238.587 364.388 238.587 362.255V98.3315C238.587 96.1999 240.081 94.4706 241.926 94.4706H436.26C438.103 94.4706 439.599 96.1978 439.599 98.3315V362.255C439.599 364.386 438.103 366.116 436.26 366.116Z" fill="#4188E4"/>
<path d="M427.586 116.624H250.644V177.922H427.586V116.624Z" fill="#142666"/>
<path d="M427.586 183.506H250.644V244.803H427.586V183.506Z" fill="#142666"/>
<path d="M427.586 250.387H250.644V311.685H427.586V250.387Z" fill="#142666"/>
<path d="M330.62 305.387V311.686H360.356V305.387H330.62Z" fill="#AFDBFE"/>
<path d="M334.73 299.784V305.386H361.326V299.784H334.73Z" fill="white"/>
<path d="M330.629 294.181V299.783H357.224V294.181H330.629Z" fill="#70C0FD"/>
<path d="M386.489 273.297H380.438V311.687H386.489V273.297Z" fill="#AFDBFE"/>
<path d="M392.701 279.797H387.924V311.687H392.701V279.797Z" fill="#70C0FD"/>
<path d="M372.503 273.297H366.452V311.687H372.503V273.297Z" fill="#AFDBFE"/>
<path d="M378.712 279.797H373.935V311.687H378.712V279.797Z" fill="#70C0FD"/>
<path d="M278.146 281.023H267.583V311.685H278.146V281.023Z" fill="#AFDBFE"/>
<path d="M265.778 284.028H262.806V311.685H265.778V284.028Z" fill="white"/>
<path d="M261.85 279.612H257.125V311.685H261.85V279.612Z" fill="#70C0FD"/>
<path d="M325.496 279.612H320.771V311.685H325.496V279.612Z" fill="#70C0FD"/>
<path d="M296.354 284.028H286.745V311.685H296.354V284.028Z" fill="white"/>
<path d="M303.412 273.297H297.361V311.687H303.412V273.297Z" fill="#AFDBFE"/>
<path d="M309.623 279.797H304.846V311.687H309.623V279.797Z" fill="#70C0FD"/>
<path d="M284.94 277.527H279.367V311.685H284.94V277.527Z" fill="#70C0FD"/>
<path d="M319.337 282.925H310.579V311.687H319.337V282.925Z" fill="white"/>
<path d="M125.909 284.006H122.937V311.664H125.909V284.006Z" fill="white"/>
<path d="M121.983 279.59H117.258V311.662H121.983V279.59Z" fill="#A2CFF6"/>
<path d="M207.814 281H197.251V311.662H207.814V281Z" fill="#AFDBFE"/>
<path d="M195.446 284.006H192.474V311.664H195.446V284.006Z" fill="white"/>
<path d="M191.518 279.59H186.794V311.662H191.518V279.59Z" fill="#70C0FD"/>
<path d="M168.429 273.274H162.378V311.664H168.429V273.274Z" fill="#AFDBFE"/>
<path d="M127.529 305.365V311.664H157.264V305.365H127.529Z" fill="#B0C1EC"/>
<path d="M131.639 299.762V305.364H158.234V299.762H131.639Z" fill="white"/>
<path d="M127.537 294.161V299.763H154.132V294.161H127.537Z" fill="#A2CFF6"/>
<path d="M174.639 279.775H169.862V311.664H174.639V279.775Z" fill="#70C0FD"/>
<path d="M185.361 282.902H176.604V311.664H185.361V282.902Z" fill="white"/>
<path d="M262.286 150.265H259.314V177.922H262.286V150.265Z" fill="white"/>
<path d="M258.359 145.849H253.635V177.922H258.359V145.849Z" fill="#70C0FD"/>
<path d="M344.191 147.26H333.628V177.922H344.191V147.26Z" fill="#AFDBFE"/>
<path d="M331.823 150.265H328.851V177.922H331.823V150.265Z" fill="white"/>
<path d="M327.895 145.849H323.17V177.922H327.895V145.849Z" fill="#70C0FD"/>
<path d="M304.806 139.534H298.755V177.924H304.806V139.534Z" fill="#AFDBFE"/>
<path d="M263.905 171.624V177.923H293.641V171.624H263.905Z" fill="#AFDBFE"/>
<path d="M268.015 166.021V171.623H294.611V166.021H268.015Z" fill="white"/>
<path d="M263.914 160.42V166.022H290.509V160.42H263.914Z" fill="#70C0FD"/>
<path d="M311.015 146.034H306.238V177.924H311.015V146.034Z" fill="#70C0FD"/>
<path d="M321.738 149.162H312.98V177.924H321.738V149.162Z" fill="white"/>
<path d="M476.694 146.788H473.722V174.445H476.694V146.788Z" fill="white"/>
<path d="M472.767 142.373H468.043V174.445H472.767V142.373Z" fill="#70C0FD"/>
<path d="M542.303 142.372H537.578V174.445H542.303V142.372Z" fill="#70C0FD"/>
<path d="M519.214 136.057H513.162V174.447H519.214V136.057Z" fill="#AFDBFE"/>
<path d="M478.314 168.145V174.445H508.05V168.145H478.314Z" fill="#AFDBFE"/>
<path d="M482.424 162.544V168.147H509.019V162.544H482.424Z" fill="white"/>
<path d="M478.323 156.941V162.544H504.918V156.941H478.323Z" fill="#A2CFF6"/>
<path d="M525.423 142.557H520.646V174.447H525.423V142.557Z" fill="#70C0FD"/>
<path d="M536.146 145.685H527.388V174.447H536.146V145.685Z" fill="white"/>
<path d="M407.154 139.534H401.103V177.924H407.154V139.534Z" fill="#AFDBFE"/>
<path d="M413.366 146.034H408.589V177.924H413.366V146.034Z" fill="#70C0FD"/>
<path d="M424.087 149.162H415.329V177.924H424.087V149.162Z" fill="white"/>
<path d="M138.277 147.26H127.714V177.922H138.277V147.26Z" fill="#AFDBFE"/>
<path d="M125.909 150.265H122.937V177.922H125.909V150.265Z" fill="white"/>
<path d="M121.983 145.849H117.258V177.922H121.983V145.849Z" fill="#70C0FD"/>
<path d="M202.93 147.26H192.367V177.922H202.93V147.26Z" fill="#AFDBFE"/>
<path d="M190.562 150.265H187.59V177.922H190.562V150.265Z" fill="white"/>
<path d="M186.634 145.849H181.909V177.922H186.634V145.849Z" fill="#70C0FD"/>
<path d="M156.485 150.265H146.876V177.922H156.485V150.265Z" fill="white"/>
<path d="M163.545 139.534H157.494V177.924H163.545V139.534Z" fill="#AFDBFE"/>
<path d="M169.754 146.034H164.977V177.924H169.754V146.034Z" fill="#70C0FD"/>
<path d="M145.071 143.764H139.498V177.921H145.071V143.764Z" fill="#70C0FD"/>
<path d="M367.9 147.26H357.337V177.922H367.9V147.26Z" fill="#AFDBFE"/>
<path d="M355.532 150.265H352.56V177.922H355.532V150.265Z" fill="white"/>
<path d="M351.606 145.849H346.881V177.922H351.606V145.849Z" fill="#70C0FD"/>
<path d="M386.108 150.265H376.5V177.921H386.108V150.265Z" fill="white"/>
<path d="M393.168 139.534H387.117V177.924H393.168V139.534Z" fill="#AFDBFE"/>
<path d="M399.377 146.034H394.6V177.924H399.377V146.034Z" fill="#70C0FD"/>
<path d="M374.694 143.764H369.121V177.921H374.694V143.764Z" fill="#70C0FD"/>
<path d="M493.207 81.126H487.156V119.516H493.207V81.126Z" fill="#AFDBFE"/>
<path d="M499.417 87.6266H494.64V119.516H499.417V87.6266Z" fill="#70C0FD"/>
<path d="M510.139 90.7539H501.382V119.516H510.139V90.7539Z" fill="white"/>
<path d="M472.161 91.8573H462.552V119.514H472.161V91.8573Z" fill="white"/>
<path d="M479.219 81.126H473.168V119.516H479.219V81.126Z" fill="#AFDBFE"/>
<path d="M485.43 87.6265H480.653V119.516H485.43V87.6265Z" fill="#70C0FD"/>
<path d="M460.747 85.3588H455.174V119.516H460.747V85.3588Z" fill="#70C0FD"/>
<path d="M388.757 214.141H378.194V244.803H388.757V214.141Z" fill="#AFDBFE"/>
<path d="M376.389 217.147H373.417V244.803H376.389V217.147Z" fill="white"/>
<path d="M372.461 212.731H367.736V244.803H372.461V212.731Z" fill="#70C0FD"/>
<path d="M412.468 214.141H401.905V244.803H412.468V214.141Z" fill="#AFDBFE"/>
<path d="M400.098 217.147H397.126V244.803H400.098V217.147Z" fill="white"/>
<path d="M396.172 212.731H391.448V244.803H396.172V212.731Z" fill="#70C0FD"/>
<path d="M419.262 210.646H413.689V244.803H419.262V210.646Z" fill="#70C0FD"/>
<path d="M180.477 149.162H171.719V177.924H180.477V149.162Z" fill="white"/>
<path d="M278.146 214.141H267.583V244.803H278.146V214.141Z" fill="#AFDBFE"/>
<path d="M265.778 217.147H262.806V244.803H265.778V217.147Z" fill="white"/>
<path d="M261.85 212.731H257.125V244.803H261.85V212.731Z" fill="#70C0FD"/>
<path d="M342.799 214.141H332.236V244.803H342.799V214.141Z" fill="#AFDBFE"/>
<path d="M330.429 217.147H327.457V244.803H330.429V217.147Z" fill="white"/>
<path d="M326.503 212.731H321.778V244.803H326.503V212.731Z" fill="#70C0FD"/>
<path d="M296.354 217.147H286.745V244.803H296.354V217.147Z" fill="white"/>
<path d="M303.412 206.415H297.361V244.805H303.412V206.415Z" fill="#AFDBFE"/>
<path d="M309.623 212.916H304.846V244.805H309.623V212.916Z" fill="#70C0FD"/>
<path d="M284.94 210.646H279.367V244.803H284.94V210.646Z" fill="#70C0FD"/>
<path d="M320.344 216.043H311.586V244.805H320.344V216.043Z" fill="white"/>
<path d="M138.277 211.337H127.714V244.803H138.277V211.337Z" fill="white"/>
<path d="M125.909 217.147H122.937V244.803H125.909V217.147Z" fill="#70C0FD"/>
<path d="M121.983 212.731H117.258V244.803H121.983V212.731Z" fill="#AFDBFE"/>
<path d="M190.562 217.147H187.59V244.803H190.562V217.147Z" fill="#70C0FD"/>
<path d="M186.634 209.268H181.909V244.803H186.634V209.268Z" fill="white"/>
<path d="M156.485 209.268H146.876V244.803H156.485V209.268Z" fill="#70C0FD"/>
<path d="M163.545 214.141H157.494V244.803H163.545V214.141Z" fill="white"/>
<path d="M169.754 204.442H164.977V244.803H169.754V204.442Z" fill="#AFDBFE"/>
<path d="M145.071 214.958H139.498V244.805H145.071V214.958Z" fill="#AFDBFE"/>
<path d="M180.477 210.646H171.719V244.803H180.477V210.646Z" fill="#70C0FD"/>
<path d="M197.464 209.343L189.215 212.746L199.146 244.919L207.394 241.516L197.464 209.343Z" fill="white"/>
<path d="M350.634 209.345L342.385 212.748L352.316 244.921L360.564 241.518L350.634 209.345Z" fill="white"/>
<path d="M355.772 210.914L351.649 212.615L361.58 244.788L365.703 243.087L355.772 210.914Z" fill="#70C0FD"/>
<path d="M513.156 85.5172L509.033 87.2185L518.963 119.391L523.086 117.69L513.156 85.5172Z" fill="#70C0FD"/>
<path d="M485.696 379.291L484.59 389.551L478.635 390.084L478.727 380.569L485.696 379.291Z" fill="#FFC0BB"/>
<path d="M380.73 281.846H438.356L432.061 332.186L384.5 323.235L380.73 281.846Z" fill="#F9537F"/>
<path d="M469.588 397.594L485.856 397.72C486.211 397.722 486.497 397.399 486.494 396.999L486.49 396.458C486.487 396.056 486.197 395.729 485.842 395.727L469.574 395.601C469.219 395.599 468.932 395.922 468.936 396.322L468.939 396.863C468.941 397.263 469.231 397.592 469.588 397.594Z" fill="#3D3A55"/>
<path d="M485.634 389.663L486.258 395.217C486.336 395.902 486.002 396.519 485.555 396.517L470.085 396.397C469.683 396.393 469.284 396.109 469.069 395.574C468.848 395.026 468.799 394.205 469.484 393.103C470.852 390.903 475.398 390.401 477.611 388.529L484.817 388.586C485.218 388.588 485.564 389.045 485.634 389.663Z" fill="#09083C"/>
<path d="M478.727 391.758C478.838 391.681 478.878 391.47 478.812 391.307C478.502 390.545 477.539 388.686 475.609 389.052C475.499 389.074 475.423 389.241 475.444 389.413V389.419C475.463 389.586 475.565 389.698 475.673 389.677C477.402 389.358 478.221 390.994 478.472 391.634C478.527 391.768 478.636 391.823 478.727 391.758Z" fill="white"/>
<path d="M477.126 392.461C477.237 392.384 477.277 392.173 477.21 392.01C476.901 391.248 475.938 389.389 474.008 389.755C473.897 389.777 473.822 389.944 473.843 390.116V390.122C473.862 390.289 473.964 390.401 474.071 390.38C475.801 390.059 476.62 391.697 476.871 392.337C476.925 392.469 477.034 392.524 477.126 392.461Z" fill="white"/>
<path d="M475.637 393.116C475.748 393.038 475.788 392.827 475.722 392.664C475.412 391.902 474.449 390.043 472.519 390.409C472.409 390.429 472.333 390.596 472.354 390.771V390.777C472.374 390.943 472.476 391.055 472.583 391.035C474.312 390.714 475.131 392.351 475.382 392.992C475.437 393.126 475.544 393.179 475.637 393.116Z" fill="white"/>
<path opacity="0.3" d="M481.427 396.485C482.611 392.012 484.708 391.533 485.857 391.646L486.258 395.217C486.335 395.902 486.002 396.519 485.555 396.517L481.427 396.485Z" fill="#E87B50"/>
<path d="M512.215 378.651L512.72 389.411L506.66 389.458L506.082 379.511L512.215 378.651Z" fill="#FFC0BB"/>
<path d="M497.954 397.777L514.222 397.903C514.577 397.905 514.864 397.582 514.86 397.182L514.857 396.641C514.853 396.241 514.563 395.912 514.206 395.91L497.939 395.784C497.584 395.782 497.297 396.105 497.301 396.505L497.304 397.046C497.309 397.448 497.599 397.775 497.954 397.777Z" fill="#3D3A55"/>
<path d="M514.003 389.848L514.627 395.402C514.704 396.086 514.37 396.704 513.924 396.702L498.454 396.582C498.051 396.578 497.652 396.294 497.438 395.759C497.218 395.211 497.167 394.39 497.853 393.288C499.22 391.088 503.767 390.584 505.98 388.714L513.185 388.771C513.586 388.771 513.932 389.228 514.003 389.848Z" fill="#09083C"/>
<path d="M507.096 391.943C507.206 391.866 507.247 391.655 507.18 391.492C506.871 390.73 505.907 388.871 503.978 389.236C503.867 389.257 503.791 389.423 503.812 389.598V389.604C503.832 389.771 503.934 389.883 504.041 389.862C505.77 389.543 506.589 391.179 506.839 391.819C506.895 391.951 507.004 392.006 507.096 391.943Z" fill="white"/>
<path d="M505.494 392.644C505.605 392.567 505.646 392.356 505.579 392.193C505.269 391.431 504.306 389.572 502.377 389.937C502.266 389.958 502.19 390.124 502.211 390.297V390.303C502.231 390.47 502.333 390.582 502.44 390.561C504.169 390.242 504.988 391.878 505.238 392.518C505.294 392.654 505.401 392.707 505.494 392.644Z" fill="white"/>
<path d="M504.006 393.299C504.116 393.221 504.157 393.01 504.09 392.847C503.781 392.085 502.818 390.226 500.888 390.592C500.777 390.614 500.702 390.781 500.723 390.954V390.96C500.742 391.126 500.844 391.238 500.951 391.218C502.681 390.899 503.5 392.534 503.749 393.175C503.804 393.309 503.913 393.364 504.006 393.299Z" fill="white"/>
<path opacity="0.3" d="M509.795 396.668C510.98 392.195 513.076 391.715 514.226 391.829L514.627 395.402C514.704 396.086 514.37 396.704 513.924 396.702L509.795 396.668Z" fill="#E87B50"/>
<path d="M588.693 363.14H391.574C391.207 363.14 390.91 362.797 390.91 362.372V360.031C390.91 359.607 391.207 359.261 391.574 359.261H588.693C589.06 359.261 589.357 359.607 589.357 360.031V362.372C589.357 362.797 589.06 363.14 588.693 363.14Z" fill="#3D3A55"/>
<path d="M601.33 248.036C600.588 248.095 472.985 248.056 431.066 248.04C423.79 248.038 417.891 254.851 417.891 263.258V325.383H575.638L600.106 297.114L601.33 248.036Z" fill="#FF5B7E"/>
<path d="M597.432 306.411H605.23C606.643 306.411 607.789 305.086 607.789 303.453V250.993C607.789 249.359 606.643 248.034 605.23 248.034H597.432C596.018 248.034 594.873 249.359 594.873 250.993V303.453C594.873 305.086 596.018 306.411 597.432 306.411Z" fill="#E03268"/>
<path d="M384.502 353.357H546.584V316.093H384.502V353.357Z" fill="#E03268"/>
<path d="M510.695 302.113C510.695 302.113 480.806 302.237 476.194 309.165C471.583 316.092 468.076 362.878 476.194 383.339C476.194 383.339 486.71 383.766 489.109 382.061C489.109 382.061 488.371 347.532 488.74 338.366C489.109 329.201 494.643 327.921 495.382 327.069C496.12 326.218 510.695 302.113 510.695 302.113Z" fill="#2B1C35"/>
<path d="M556.479 230.379L557.613 241.009L548.493 240.647L548.755 228.483L556.479 230.379Z" fill="#FFC0BB"/>
<path opacity="0.6" d="M548.635 234.084L548.756 228.483L556.593 231.385L556.813 233.484C555.073 234.236 551.769 235.149 548.635 234.084Z" fill="#FC8D84"/>
<path d="M537.759 213.548L538.94 220.798L540.079 221.188L539.795 211.991L537.759 213.548Z" fill="#FEE4CB"/>
<path d="M540.594 219.477C541.248 220.995 540.923 222.716 539.87 223.32C538.817 223.923 537.434 223.184 536.781 221.666C536.127 220.148 536.452 218.427 537.505 217.823C538.557 217.218 539.941 217.959 540.594 219.477Z" fill="#F99893"/>
<path d="M541.568 228.603C541.186 227.957 540.856 227.266 540.578 226.535C539.8 224.578 539.336 222.467 539.06 220.615C539 220.217 538.921 219.827 538.837 219.435C538.492 217.856 538.388 216.161 538.603 214.389C539.292 208.689 543.22 204.101 548.153 203.249C554.8 202.103 560.715 207.714 561.194 215.238C561.875 214.722 562.664 214.55 563.388 214.85C564.778 215.427 565.395 217.52 564.769 219.526C564.142 221.53 562.507 222.688 561.117 222.109C560.924 222.03 560.748 221.916 560.586 221.782C560.43 228.234 556.198 233.568 550.737 233.931C548.066 234.11 545.572 233.068 543.624 231.211C543.494 231.103 543.359 230.977 543.215 230.828C542.58 230.178 542.037 229.422 541.568 228.603Z" fill="#FFC0BB"/>
<path d="M551.089 217.248C551.12 217.88 551.588 218.362 552.136 218.325C552.684 218.289 553.101 217.748 553.069 217.116C553.038 216.484 552.568 216.002 552.022 216.039C551.475 216.076 551.057 216.618 551.089 217.248Z" fill="#333333"/>
<path d="M542.612 218.461C542.644 219.093 543.111 219.575 543.66 219.538C544.208 219.502 544.624 218.961 544.593 218.329C544.561 217.697 544.092 217.216 543.545 217.252C542.999 217.289 542.58 217.829 542.612 218.461Z" fill="#333333"/>
<path d="M549.779 215.062C550.252 214.799 550.707 214.582 551.166 214.426C551.623 214.269 552.082 214.184 552.539 214.18C552.992 214.184 553.454 214.23 553.908 214.399L554.082 214.45C554.14 214.468 554.194 214.499 554.252 214.521L554.6 214.663C554.834 214.763 555.055 214.899 555.312 214.994C555.155 214.755 554.98 214.523 554.785 214.316C554.572 214.139 554.37 213.92 554.12 213.796C553.648 213.485 553.083 213.351 552.53 213.353C551.974 213.357 551.424 213.529 550.948 213.828C550.477 214.133 550.057 214.539 549.779 215.062Z" fill="#07085B"/>
<path d="M545.805 215.564C545.438 215.121 544.951 214.828 544.436 214.649C543.916 214.474 543.348 214.444 542.803 214.578C542.264 214.714 541.738 214.986 541.332 215.407C541.111 215.59 540.955 215.854 540.781 216.08C540.628 216.33 540.499 216.6 540.39 216.874C540.624 216.718 540.816 216.529 541.025 216.374L541.338 216.149C541.39 216.114 541.438 216.07 541.491 216.037L541.652 215.944C542.064 215.667 542.506 215.505 542.948 215.389C543.394 215.279 543.858 215.247 544.334 215.287C544.811 215.326 545.294 215.425 545.805 215.564Z" fill="#07085B"/>
<path d="M536.174 204.928C536.174 204.928 532.777 205.249 536.207 201.725C539.638 198.201 549.059 193.763 555.361 197.155C555.361 197.155 556.463 194.07 558.268 194.69C560.075 195.308 557.231 197.549 557.231 197.549C557.231 197.549 559.495 197.336 560.242 198.579C560.794 199.5 559.407 199.62 558.646 199.62C559.948 199.799 564.284 202.436 562.286 214.094C561.393 213.922 554.263 207.163 554.263 207.163C554.263 207.163 544.937 214.354 546.03 210.526C546.03 210.526 534.905 217.843 536.297 210.656C536.301 210.656 531.706 211.308 536.174 204.928Z" fill="#07085B"/>
<path d="M547.338 215.261C547.595 216.033 547.737 216.844 547.798 217.673C547.828 218.089 547.83 218.508 547.791 218.939C547.746 219.368 547.67 219.811 547.447 220.243L547.347 220.402L547.257 220.536C547.22 220.599 547.162 220.654 547.138 220.721C547.067 220.847 547.025 220.983 547.011 221.121C546.967 221.402 547.088 221.7 547.271 221.963C547.663 222.493 548.334 222.769 549.03 222.909C548.345 223.09 547.524 223.019 546.897 222.397C546.591 222.097 546.348 221.613 546.368 221.074C546.373 220.942 546.387 220.81 546.426 220.686C546.452 220.556 546.505 220.445 546.558 220.331C546.607 220.213 546.682 220.128 546.746 220.026C546.786 219.969 546.793 219.951 546.812 219.918L546.867 219.831C547.008 219.569 547.09 219.205 547.152 218.839C547.22 218.469 547.233 218.077 547.266 217.685C547.308 216.888 547.315 216.084 547.338 215.261Z" fill="#F99893"/>
<path d="M554.266 207.163C554.266 207.163 558.208 214.358 558.296 218.616C558.296 218.616 559.962 214.803 562.706 214.706C562.706 214.706 563.599 207.539 561.922 203.06L555.721 204.594L554.266 207.163Z" fill="#07085B"/>
<path d="M546.303 236.589C546.303 236.589 549.071 241.598 558.294 236.589C558.294 236.589 574.991 231.261 576.283 254.175L576.928 275.489C576.928 275.489 568.302 275.524 563.875 275.713L563.738 280.177L538.554 303.837C538.554 303.837 523.609 302.345 520.565 300.64C520.565 300.64 525.915 288.385 526.747 285.613C527.578 282.841 528.175 256.091 529.052 253.321C529.931 250.552 532.504 236.969 546.303 236.589Z" fill="#FEB546"/>
<path d="M533.902 252.628C533.566 253.264 533.295 253.941 533.067 254.632C532.94 254.973 532.844 255.327 532.729 255.672L532.441 256.731C532.079 258.152 531.81 259.602 531.618 261.068C531.39 262.527 531.288 264.006 531.177 265.485C531.132 266.225 531.107 266.969 531.07 267.71C531.051 268.454 531.04 269.198 531.01 269.942C530.97 269.198 530.949 268.454 530.917 267.708C530.924 266.963 530.923 266.217 530.938 265.471C531 263.98 531.105 262.488 531.311 261.011C531.531 259.537 531.798 258.068 532.213 256.65C532.634 255.24 533.132 253.833 533.902 252.628Z" fill="#452B52"/>
<path d="M519.628 268.499C519.402 268.509 510.27 262.114 510.27 262.114L508.563 262.533L509.169 263.049L508.148 262.752L506.487 263.049C506.487 263.049 511.976 270.533 512.068 270.746C512.159 270.96 514.558 272.025 514.742 272.132C514.929 272.238 519.628 268.499 519.628 268.499Z" fill="#DAEEF7"/>
<path d="M534.243 263.394L533.413 262.795L533.032 263.096V262.535L532.513 262.116L519.23 268.19C519.23 268.19 523.485 271.307 523.623 271.187C523.762 271.067 531.337 269.468 531.476 269.228C531.613 268.989 534.243 263.394 534.243 263.394Z" fill="#DAEEF7"/>
<path d="M534.033 263.11L518.978 268.743L506.837 262.636C506.101 262.266 505.292 262.955 505.382 263.878L507.695 287.785C507.734 288.183 507.939 288.533 508.247 288.72L519.905 295.82L530.464 291.305L530.736 290.843L532.105 290.604L536.533 288.71C536.928 288.541 537.178 288.086 537.141 287.6L535.399 264.156C535.338 263.38 534.671 262.87 534.033 263.11Z" fill="#E03268"/>
<path opacity="0.5" d="M534.033 263.11C534.673 262.87 535.339 263.382 535.397 264.154L537.135 287.568C537.172 288.072 536.914 288.541 536.504 288.718L532.102 290.602L530.733 290.841L530.46 291.303L520.832 295.29L518.976 268.743L534.033 263.11Z" fill="#E03268"/>
<path d="M516.73 271.6L507.341 266.857L507.64 271.787L516.843 276.715L516.73 271.6Z" fill="#C1215B"/>
<path d="M539.062 287.149C539.102 286.991 539.185 286.765 538.998 286.603C538.947 286.564 538.896 286.523 538.846 286.485C538.102 285.91 537.594 285.213 537.215 284.276C537.13 284.067 537.035 283.733 536.933 283.595C536.861 283.496 536.842 283.636 536.842 283.636L537.007 285.871L534.763 286.816C534.763 286.816 530.831 287.531 528.894 286.546C528.894 286.546 527.88 285.721 528.202 287.212C528.233 287.357 528.304 287.487 528.406 287.609C528.263 287.71 528.109 287.972 528.386 288.978C528.397 289.017 528.411 289.055 528.427 289.094C528.358 289.691 528.411 290.441 528.982 290.844C529.114 291.337 529.429 291.87 530.151 292.11C531.153 292.443 533.446 292.813 534.896 293.026C536.167 293.252 537.084 293.353 537.591 293.235L538.125 293.335C538.121 293.172 539.503 290.894 539.649 289.919C539.798 288.94 538.823 288.098 539.062 287.149Z" fill="#FFC0BB"/>
<path d="M538.998 286.603C538.998 286.603 552.621 285.8 556.426 284.282C560.231 282.764 563.738 280.179 563.738 280.179V275.705L576.663 275.481C576.663 275.481 578.29 289.159 574.622 290.756C570.954 292.353 545.754 294.912 537.591 293.233L538.998 286.603Z" fill="#FFC0BB"/>
<path d="M528.407 289.013C528.641 289.326 528.942 289.565 529.256 289.766C529.571 289.968 529.912 290.112 530.258 290.224C530.608 290.323 530.963 290.392 531.321 290.411C531.501 290.425 531.68 290.415 531.858 290.417C532.035 290.4 532.214 290.384 532.39 290.358C532.033 290.337 531.682 290.323 531.332 290.272C530.982 290.224 530.638 290.151 530.299 290.051C529.961 289.947 529.631 289.811 529.311 289.645C528.993 289.474 528.683 289.271 528.407 289.013Z" fill="#F99893"/>
<path d="M528.98 290.845C529.234 291.138 529.552 291.349 529.877 291.52C530.205 291.693 530.553 291.805 530.907 291.884C531.262 291.953 531.62 291.987 531.979 291.973C532.158 291.971 532.336 291.945 532.513 291.931C532.691 291.898 532.866 291.866 533.04 291.823C532.684 291.835 532.33 291.853 531.979 291.835C531.627 291.817 531.278 291.778 530.933 291.707C530.589 291.634 530.249 291.53 529.921 291.392C529.596 291.25 529.274 291.077 528.98 290.845Z" fill="#F99893"/>
<path d="M528.407 287.608C528.641 287.923 528.942 288.161 529.256 288.362C529.571 288.563 529.912 288.708 530.258 288.82C530.608 288.919 530.963 288.988 531.321 289.006C531.501 289.021 531.68 289.011 531.858 289.013C532.035 288.996 532.214 288.978 532.39 288.954C532.033 288.933 531.682 288.919 531.332 288.868C530.982 288.82 530.638 288.746 530.299 288.645C529.961 288.541 529.631 288.405 529.311 288.238C528.993 288.068 528.683 287.866 528.407 287.608Z" fill="#F99893"/>
<path d="M573.446 275.503C572.286 275.505 571.124 275.499 569.965 275.481L566.483 275.424C565.377 275.4 564.272 275.367 563.168 275.325C563.282 274.014 563.372 272.699 563.426 271.384C563.479 270.005 563.53 268.625 563.525 267.243C563.527 265.863 563.511 264.482 563.476 263.102C563.428 261.722 563.376 260.344 563.275 258.969C563.305 260.348 563.326 261.726 563.323 263.104C563.328 264.482 563.316 265.859 563.286 267.237C563.252 268.615 563.214 269.99 563.144 271.364C563.077 272.738 562.971 274.109 562.845 275.477L562.827 275.67L562.994 275.676C564.156 275.713 565.318 275.735 566.479 275.749C567.641 275.762 568.803 275.774 569.965 275.755C572.288 275.731 574.611 275.658 576.93 275.489C575.768 275.495 574.608 275.514 573.446 275.503Z" fill="#452B52"/>
<path d="M509.535 274.92C509.379 274.544 506.639 275.091 506.609 274.863C506.579 274.638 509.308 273.059 509.236 272.683C509.157 272.264 506.273 273.39 506.08 273.236C505.886 273.081 508.456 270.635 507.971 270.324C507.603 270.088 505.86 271.476 505.039 272.161C504.776 272.38 504.645 272.756 504.705 273.126L505.816 280.738C505.913 281.407 506.431 281.88 507.016 281.842L507.115 281.835L506.958 277.71C507.786 277.678 509.329 277.568 509.198 277.217C509.074 276.889 507.744 276.648 506.914 276.528L506.911 276.452C506.923 276.302 509.676 275.26 509.535 274.92Z" fill="#FFC0BB"/>
<path d="M471.414 341.456H453.271H451.61H418.111H400.003C393.537 341.456 388.294 335.401 388.294 327.929V290.583C388.294 285.757 384.908 281.844 380.73 281.844C376.552 281.844 373.165 285.755 373.165 290.583V328.892C373.165 345.665 384.934 359.261 399.453 359.261H418.113H433.593H451.613H453.274H471.725C471.329 353.399 471.252 347.307 471.414 341.456Z" fill="#FF85A5"/>
<path d="M488.666 341.456C488.604 345.909 488.648 352.592 488.729 359.261H525.086V341.456H488.666Z" fill="#FF85A5"/>
<path d="M547.654 281.953L601.439 282.4C606.636 282.4 610.849 287.267 610.849 293.27V331.595C610.849 346.876 600.126 359.263 586.9 359.263H531.147C531.147 359.263 542.216 336.966 542.216 336.325C542.216 335.685 547.654 281.953 547.654 281.953Z" fill="#F9537F"/>
<path d="M548.333 281.846C544.155 281.846 540.768 285.757 540.768 290.586V327.931C540.768 328.189 540.761 328.443 540.749 328.697V328.703H540.747C540.401 335.815 535.301 341.458 529.058 341.458H513.073C513.547 346.774 514.141 353.114 514.729 359.263H529.608C544.125 359.263 555.895 345.667 555.895 328.894V290.586C555.897 285.757 552.51 281.846 548.333 281.846Z" fill="#FF85A5"/>
<path d="M514.073 352.316C513.804 349.434 513.454 345.693 513.075 341.458C512.398 333.141 511.695 327.673 512.449 328.256C515.045 327.169 531.14 328.081 540.747 328.703C540.747 328.703 540.747 328.703 540.749 328.703C540.809 326.864 540.747 298.5 540.768 297.021C477.665 303.093 491.571 315.584 497.489 358.709C497.522 358.893 497.556 359.078 497.589 359.261C500.157 373.522 502.579 385.26 502.579 385.26C502.579 385.26 511.804 385.686 517.154 384.195C517.159 384.26 515.489 367.416 514.073 352.316Z" fill="#3A2645"/>
<path d="M407.717 394.126L415.316 388.708L421.881 393.288L419.587 395.174L411.627 396.471C411.627 396.471 408.52 396.011 408.383 395.904C408.248 395.8 407.717 394.126 407.717 394.126Z" fill="#F7AEAA"/>
<path d="M407.717 394.126L405.791 395.556C404.898 396.206 405.293 397.8 406.349 397.806L420.932 397.885C421.447 397.887 421.865 397.407 421.867 396.814L421.881 393.288C412.155 396.81 408.805 395.704 407.717 394.126Z" fill="#FF6088"/>
<path d="M416.009 394.126L423.609 388.708L430.173 393.288L427.879 395.174L419.92 396.471C419.92 396.471 416.812 396.011 416.675 395.904C416.54 395.8 416.009 394.126 416.009 394.126Z" fill="#FFC0BB"/>
<path d="M416.009 394.126L414.083 395.556C413.19 396.206 413.585 397.8 414.64 397.806L429.222 397.885C429.737 397.887 430.155 397.407 430.157 396.814L430.171 393.288C420.447 396.81 417.097 395.704 416.009 394.126Z" fill="#FF6088"/>
<path d="M456.761 239.347C460.68 236.173 458.599 234.901 460.902 232.141C462.695 229.991 463.253 228.384 463.218 226.811C463.264 225.238 462.716 223.627 460.937 221.461C458.652 218.681 460.742 217.425 456.844 214.218C452.945 211.01 448.803 218.788 448.803 218.788L444.529 224.895L445.327 228.059L443.653 234.228C443.653 234.228 452.844 242.519 456.761 239.347Z" fill="#07085B"/>
<path d="M420.137 299.787C420.137 299.787 403.901 306.822 402.98 312.363C402.058 317.905 408.699 388.243 411.559 391.654C411.559 391.654 417.476 393.573 422.127 390.59C426.777 387.607 424.565 364.372 424.565 363.734C424.565 363.094 429.776 328.992 429.753 327.711C429.73 326.431 438.214 311.087 440.245 308.955C442.275 306.824 445.551 296.434 445.551 296.434L420.137 299.787Z" fill="#030321"/>
<path d="M467.967 294.518C467.967 294.518 469.231 312.914 464.784 319.467C460.338 326.021 435.173 326.165 435.173 326.165L430.173 393.29C430.173 393.29 423.485 392.813 419.195 391.854C419.195 391.854 415.663 317.852 420.229 312.896C424.795 307.939 445.551 296.43 445.551 296.43L467.967 294.518Z" fill="#09083C"/>
<path d="M441.771 206.498C441.771 206.498 435.011 203.517 431.018 210.087C427.96 215.119 428.598 222.001 432.321 226.394L433.827 228.173C433.827 228.173 439.978 220.526 440.045 220.156C440.114 219.786 441.771 206.498 441.771 206.498Z" fill="#07085B"/>
<path d="M437.189 244.26C437.189 244.26 446.706 242.238 451.083 242.409C455.459 242.58 448.43 255.727 448.43 255.727L441.283 255.91C441.283 255.91 436.901 250.257 437.189 249.599C437.477 248.94 437.175 244.628 437.175 244.628L437.189 244.26Z" fill="#FFC0BB"/>
<path d="M447.901 233.275L449.608 242.33C449.608 242.33 446.966 247.26 440.511 244.22C440.511 244.22 441.433 242.498 440.752 238.642C440.056 234.701 447.901 233.275 447.901 233.275Z" fill="#FFC0BB"/>
<path opacity="0.6" d="M447.901 233.275L448.704 237.506C447.738 240.412 445.288 242.173 440.959 242.291C441.04 241.403 441.029 240.2 440.753 238.642C440.056 234.701 447.901 233.275 447.901 233.275Z" fill="#FC8D84"/>
<path d="M433.25 225.033C433.662 226.52 433.162 228.034 432.133 228.414C431.103 228.794 429.934 227.898 429.523 226.411C429.111 224.923 429.61 223.409 430.64 223.029C431.67 222.649 432.839 223.545 433.25 225.033Z" fill="#F99893"/>
<path d="M433.043 233.496C432.774 232.846 432.556 232.163 432.391 231.456C431.918 229.548 431.748 227.553 431.718 225.823C431.711 225.452 431.686 225.082 431.656 224.714C431.531 223.222 431.64 221.662 432.048 220.083C433.358 215.005 437.477 211.457 442.063 211.475C448.242 211.497 452.945 217.555 452.483 224.482C453.163 224.123 453.901 224.09 454.524 224.48C455.717 225.23 456.028 227.234 455.22 228.959C454.409 230.684 452.785 231.475 451.59 230.725C451.425 230.621 451.277 230.491 451.146 230.343C450.232 236.191 445.746 240.367 440.737 239.824C438.289 239.558 436.145 238.209 434.598 236.205C434.495 236.087 434.386 235.949 434.271 235.791C433.776 235.094 433.373 234.317 433.043 233.496Z" fill="#FFC0BB"/>
<path d="M439.734 223.22C439.873 223.895 439.913 224.588 439.885 225.285C439.869 225.634 439.831 225.984 439.759 226.337C439.679 226.687 439.574 227.047 439.347 227.378L439.249 227.496L439.161 227.597C439.124 227.646 439.071 227.683 439.045 227.735C438.975 227.831 438.927 227.939 438.903 228.05C438.839 228.278 438.911 228.542 439.038 228.784C439.312 229.276 439.843 229.593 440.407 229.798C439.82 229.859 439.145 229.694 438.685 229.097C438.46 228.808 438.305 228.374 438.374 227.929C438.391 227.819 438.416 227.711 438.46 227.614C438.495 227.508 438.549 227.423 438.604 227.335C438.655 227.242 438.727 227.181 438.79 227.106C438.829 227.063 438.836 227.049 438.857 227.024L438.911 226.957C439.054 226.758 439.157 226.465 439.244 226.169C439.337 225.87 439.384 225.545 439.449 225.224C439.555 224.57 439.637 223.903 439.734 223.22Z" fill="#F99893"/>
<path d="M443.057 224.687C443.01 225.267 443.379 225.781 443.88 225.836C444.381 225.89 444.827 225.464 444.873 224.885C444.92 224.305 444.551 223.791 444.05 223.736C443.549 223.682 443.103 224.108 443.057 224.687Z" fill="#333333"/>
<path d="M435.208 224.431C435.161 225.01 435.53 225.525 436.031 225.579C436.532 225.634 436.978 225.208 437.024 224.628C437.071 224.049 436.702 223.535 436.201 223.48C435.7 223.425 435.254 223.85 435.208 224.431Z" fill="#333333"/>
<path opacity="0.3" d="M442.497 232.678C442.497 232.678 441.247 231.985 439.943 232.761C439.943 232.761 438.709 231.647 437.586 232.434C437.586 232.434 437.864 234.762 440.047 234.872C442.23 234.98 442.497 232.678 442.497 232.678Z" fill="#F99893"/>
<path d="M443.706 232.001C443.441 232.2 443.165 232.383 442.88 232.533C442.597 232.692 442.307 232.83 442.01 232.94C441.416 233.159 440.799 233.289 440.18 233.275C439.562 233.265 438.952 233.102 438.379 232.822C437.809 232.533 437.284 232.125 436.795 231.657C437.008 231.93 437.238 232.186 437.49 232.415C437.741 232.647 438.017 232.838 438.302 233.015C438.592 233.182 438.896 233.314 439.212 233.405C439.528 233.492 439.852 233.541 440.177 233.551C440.827 233.559 441.474 233.413 442.073 233.139C442.669 232.867 443.231 232.493 443.706 232.001Z" fill="#F99893"/>
<path d="M442.21 222.145C442.69 222.056 443.138 222.001 443.576 221.995C444.014 221.989 444.434 222.044 444.834 222.168C445.233 222.298 445.629 222.464 445.996 222.735C446.195 222.844 446.36 223.015 446.558 223.151C446.748 223.302 446.917 223.48 447.131 223.633C447.047 223.373 446.943 223.113 446.815 222.871C446.669 222.645 446.532 222.397 446.339 222.212C445.984 221.798 445.509 221.515 445.015 221.361C444.518 221.209 443.989 221.209 443.502 221.347C443.019 221.491 442.562 221.745 442.21 222.145Z" fill="#07085B"/>
<path d="M438.168 222.011C437.848 221.58 437.411 221.282 436.94 221.091C436.465 220.906 435.939 220.853 435.432 220.957C434.927 221.062 434.433 221.296 434.05 221.674C433.843 221.838 433.688 222.072 433.526 222.281C433.381 222.511 433.257 222.757 433.156 223.009C433.379 222.879 433.563 222.716 433.762 222.584C433.969 222.468 434.147 222.312 434.352 222.225C434.739 221.991 435.145 221.865 435.551 221.776C435.961 221.692 436.384 221.678 436.818 221.727C437.254 221.778 437.697 221.875 438.168 222.011Z" fill="#07085B"/>
<path d="M426.373 265.68C426.373 265.68 425.507 290.612 423.079 294.517L436.426 291.012V263.878L426.373 265.68Z" fill="#FFC0BB"/>
<path d="M432.061 269.084C432.061 269.084 433.918 275.359 434.256 278.692C435.094 286.968 434.184 292.809 432.7 297.519C430.619 304.127 447.606 301.725 447.954 301.524C448.3 301.325 462.862 294.816 462.862 294.816L465.635 285.505V269.084L464.855 261.574L432.061 269.084Z" fill="#02CCC0"/>
<path d="M472.741 261.576L462.051 265.78C462.051 265.78 463.9 285.538 463.322 288.342C462.828 290.738 455.076 295.503 450.163 298.171C449.372 298.6 448.501 298.785 447.631 298.702C444.833 298.435 439.873 297.935 439.094 297.875C437.873 297.777 434.509 297.877 434.402 298.372C434.301 298.832 437.027 298.326 438.796 298.748C439.045 298.807 438.911 299.191 438.853 299.193C437.915 299.234 435.5 299.354 434.706 299.659C433.732 300.033 437.177 299.736 439.038 300.132C439.168 300.161 439.274 300.587 439.179 300.695C438.957 300.949 438.147 301.169 435.924 301.431C432.215 301.87 435.843 302.4 435.843 302.4C435.843 302.4 436.177 302.29 439.363 301.786C439.481 301.768 439.611 302.15 439.435 302.329C439.128 302.64 438.416 303.255 437.456 303.583C436.263 303.989 437.131 304.349 437.131 304.349C437.131 304.349 439.391 303.57 440.658 303.461C441.608 303.379 446.077 303.8 447.912 303.92L448.052 303.556C450.538 303.473 470.37 302.877 472.277 288.677C474.242 274.057 472.741 261.576 472.741 261.576Z" fill="#FFC0BB"/>
<path d="M395.045 275.725H429.108L438.766 302.961H455.174C455.633 302.961 456.005 303.392 456.005 303.92C456.005 304.45 455.633 304.879 455.174 304.879H406.365L395.045 275.725Z" fill="#07085B"/>
<path d="M411.937 291.266C412.137 292.426 413.014 293.203 413.893 293C414.772 292.796 415.322 291.691 415.121 290.531C414.921 289.37 414.044 288.594 413.165 288.797C412.285 289 411.735 290.106 411.937 291.266Z" fill="#DAEEF7"/>
<path d="M437.189 244.26C437.189 244.26 443.659 252.984 451.082 242.409C451.082 242.409 459.194 241.645 465.173 246.553C471.154 251.458 474.734 262.478 474.734 262.478C474.734 262.478 463.9 268.785 461.213 269.086H431.14C431.14 269.086 426.547 268.686 422.127 266.083C422.127 266.081 422.89 248.564 437.189 244.26Z" fill="#02CCC0"/>
<path d="M456.397 255.908C456.707 256.979 456.981 258.062 457.258 259.143C457.538 260.224 457.789 261.316 458.039 262.407C458.278 263.502 458.517 264.597 458.724 265.701C458.93 266.806 459.132 267.914 459.285 269.035L459.056 268.769C459.352 268.804 459.715 268.792 460.049 268.761C460.39 268.735 460.733 268.678 461.074 268.621C461.756 268.481 462.438 268.33 463.109 268.113L463.614 267.958L464.115 267.782C464.447 267.66 464.782 267.55 465.113 267.412L466.104 267.016L467.085 266.579C467.74 266.294 468.38 265.961 469.03 265.654L470.948 264.644L472.848 263.581C473.474 263.207 474.099 262.836 474.734 262.474C474.138 262.909 473.535 263.333 472.932 263.758C472.324 264.171 471.709 264.573 471.09 264.967C470.466 265.349 469.837 265.721 469.204 266.087L468.241 266.603C467.921 266.776 467.6 266.95 467.269 267.101C465.969 267.749 464.628 268.3 463.253 268.735L462.737 268.895L462.215 269.031C461.868 269.131 461.513 269.194 461.16 269.265C460.803 269.322 460.448 269.379 460.086 269.403C459.719 269.43 459.375 269.448 458.969 269.395L458.772 269.371L458.74 269.131C458.448 266.918 458.058 264.711 457.652 262.51L457.033 259.208L456.397 255.908Z" fill="white"/>
<path d="M433.533 253.374C433.11 254.657 432.725 255.943 432.381 257.239C432.043 258.538 431.744 259.846 431.544 261.173C431.433 261.834 431.361 262.502 431.314 263.169C431.256 263.837 431.249 264.506 431.27 265.174C431.312 266.512 433.029 272.805 433.533 274.051C432.822 272.945 430.953 266.599 430.827 265.215C430.681 263.825 430.781 262.421 430.983 261.058C431.096 260.377 431.228 259.7 431.391 259.036C431.562 258.373 431.743 257.715 431.961 257.073C432.389 255.788 432.897 254.537 433.533 253.374Z" fill="white"/>
<path d="M452.483 224.478C452.483 224.478 441.71 220.069 437.212 210.758C437.212 210.758 437.511 202.587 447.413 205.944C454.274 208.27 456.67 219.006 452.483 224.478Z" fill="#07085B"/>
<path d="M553.071 225.053C552.264 225.206 551.467 225.305 550.672 225.435C549.876 225.561 549.094 225.706 548.299 225.931C549.006 225.439 549.825 225.214 550.628 225.08C551.438 224.958 552.259 224.923 553.071 225.053Z" fill="#F99893"/>
<path d="M394.687 397.928H391.474L399.486 361.553L402.504 362.439L394.687 397.928Z" fill="#3D3A55"/>
<path d="M584.879 397.905H588.092L580.079 361.529L577.063 362.417L584.879 397.905Z" fill="#3D3A55"/>
<path d="M550.769 397.905H547.556L555.569 361.529L558.586 362.417L550.769 397.905Z" fill="#3D3A55"/>
<path d="M519.662 268.298L520.834 295.29C520.852 295.69 520.558 296.015 520.214 295.981L519.124 295.871C518.836 295.842 518.611 295.568 518.604 295.233L517.913 268.097C517.911 268.097 518.797 267.593 519.662 268.298Z" fill="#C1215B"/>
<path d="M174.217 314.237H106.017V346.671H174.217V314.237Z" fill="#E03268"/>
<path d="M53.623 245.876C54.4737 245.945 121.953 245.876 121.953 245.876V319.898H78.2111L54.7936 292.845L53.623 245.876Z" fill="#FF5B7E"/>
<path d="M172.848 287.464C172.848 287.464 126.048 290.695 126.048 287.464C126.048 284.233 126.048 301.538 126.048 301.538C126.048 301.538 148.936 306.281 151.511 306.281C154.086 306.281 166.078 313.625 167.668 314.237C169.259 314.848 172.672 298.454 172.848 298.314C173.025 298.173 172.848 287.464 172.848 287.464Z" fill="#F9537F"/>
<path d="M57.1908 301.744H50.0569C48.614 301.744 47.4435 300.392 47.4435 298.722V248.896C47.4435 247.227 48.614 245.874 50.0552 245.874H57.1891C58.632 245.874 59.8008 247.227 59.8008 248.896V298.722C59.8025 300.392 58.6338 301.744 57.1908 301.744Z" fill="#E03268"/>
<path d="M104.342 287.464H49.078C44.1041 287.464 40.0741 292.122 40.0741 297.868V334.545C40.0741 349.168 50.3346 361.023 62.9942 361.023L119.896 361.425C119.896 361.425 115.947 360.21 115.297 358.896C112.618 353.482 105.757 339.562 105.757 339.071C105.753 338.461 104.342 287.464 104.342 287.464Z" fill="#F9537F"/>
<path d="M165.61 295.828V331.568C165.61 338.717 160.594 344.515 154.404 344.515H122.786C116.598 344.515 111.58 338.719 111.58 331.568V295.828C111.58 291.209 108.339 287.464 104.34 287.464C100.342 287.464 97.1011 291.209 97.1011 295.828V332.491C97.1011 348.542 108.363 361.556 122.259 361.556H154.931C168.825 361.556 180.089 348.542 180.089 332.491V295.828C180.089 291.209 176.848 287.464 172.849 287.464C168.851 287.464 165.61 291.209 165.61 295.828Z" fill="#FF85A5"/>
<path d="M166.512 378.556L167.665 389.232L173.862 389.789L173.765 379.887L166.512 378.556Z" fill="#FFC0BB"/>
<path d="M183.279 397.605L166.348 397.737C165.977 397.739 165.68 397.403 165.684 396.985L165.687 396.422C165.691 396.003 165.993 395.664 166.364 395.66L183.294 395.528C183.665 395.526 183.962 395.861 183.959 396.28L183.955 396.842C183.952 397.261 183.648 397.602 183.279 397.605Z" fill="#3D3A55"/>
<path d="M166.577 389.35L165.928 395.129C165.847 395.843 166.195 396.487 166.659 396.483L182.76 396.357C183.179 396.353 183.593 396.056 183.818 395.499C184.049 394.93 184.1 394.073 183.388 392.929C181.964 390.638 177.231 390.114 174.93 388.167L167.431 388.226C167.011 388.23 166.651 388.706 166.577 389.35Z" fill="#E03268"/>
<path d="M173.765 391.531C173.649 391.451 173.609 391.23 173.677 391.061C173.999 390.267 175.002 388.334 177.01 388.714C177.126 388.736 177.203 388.909 177.182 389.09V389.096C177.161 389.271 177.055 389.385 176.943 389.364C175.143 389.031 174.291 390.736 174.031 391.4C173.974 391.541 173.862 391.598 173.765 391.531Z" fill="white"/>
<path d="M175.431 392.262C175.315 392.183 175.275 391.961 175.343 391.793C175.665 390.998 176.669 389.066 178.676 389.446C178.792 389.468 178.869 389.641 178.848 389.822V389.828C178.827 390.002 178.721 390.116 178.609 390.096C176.809 389.763 175.957 391.468 175.697 392.132C175.64 392.272 175.528 392.327 175.431 392.262Z" fill="white"/>
<path d="M176.981 392.943C176.865 392.864 176.825 392.642 176.894 392.474C177.215 391.679 178.219 389.746 180.226 390.126C180.342 390.149 180.419 390.322 180.398 390.502V390.508C180.377 390.683 180.272 390.797 180.159 390.777C178.359 390.443 177.507 392.148 177.247 392.813C177.191 392.953 177.078 393.01 176.981 392.943Z" fill="white"/>
<path opacity="0.3" d="M170.957 396.45C169.725 391.795 167.542 391.297 166.347 391.413L165.928 395.129C165.847 395.843 166.195 396.487 166.659 396.483L170.957 396.45Z" fill="#E87B50"/>
<path d="M154.71 378.783L157.45 389.086L163.756 389.137L162.657 381.614L154.71 378.783Z" fill="#FFC0BB"/>
<path d="M98.8269 222.507C98.8269 222.507 96.9428 211.524 102.449 207.661C107.954 203.798 113.627 204.481 117.418 207.082C121.209 209.683 123.241 218.297 121.339 223.096L108.637 217.929L98.8269 222.507Z" fill="#07085B"/>
<path d="M172.816 397.796L155.886 397.928C155.515 397.93 155.218 397.594 155.221 397.176L155.225 396.613C155.228 396.194 155.531 395.855 155.902 395.851L172.832 395.719C173.203 395.717 173.5 396.052 173.496 396.471L173.493 397.034C173.489 397.452 173.187 397.793 172.816 397.796Z" fill="#3D3A55"/>
<path d="M156.116 389.541L155.468 395.321C155.387 396.034 155.735 396.678 156.199 396.674L172.3 396.548C172.718 396.544 173.133 396.247 173.358 395.69C173.588 395.121 173.639 394.264 172.927 393.12C171.503 390.83 166.77 390.305 164.47 388.359L156.97 388.418C156.548 388.422 156.188 388.897 156.116 389.541Z" fill="#F9537F"/>
<path d="M163.303 391.722C163.187 391.642 163.146 391.421 163.215 391.252C163.536 390.458 164.54 388.525 166.547 388.905C166.663 388.928 166.74 389.1 166.719 389.281V389.287C166.698 389.462 166.593 389.576 166.48 389.556C164.681 389.222 163.828 390.927 163.568 391.592C163.512 391.732 163.399 391.789 163.303 391.722Z" fill="white"/>
<path d="M164.969 392.453C164.853 392.374 164.812 392.153 164.881 391.984C165.202 391.191 166.206 389.257 168.213 389.637C168.329 389.659 168.406 389.832 168.385 390.013V390.019C168.364 390.194 168.259 390.307 168.146 390.287C166.347 389.954 165.494 391.659 165.234 392.323C165.178 392.463 165.065 392.518 164.969 392.453Z" fill="white"/>
<path d="M166.519 393.134C166.403 393.055 166.362 392.833 166.431 392.665C166.753 391.87 167.756 389.938 169.763 390.318C169.879 390.34 169.957 390.513 169.936 390.693V390.7C169.914 390.874 169.809 390.988 169.697 390.968C167.897 390.634 167.044 392.339 166.784 393.004C166.728 393.144 166.616 393.201 166.519 393.134Z" fill="white"/>
<path opacity="0.3" d="M160.494 396.641C159.262 391.986 157.079 391.488 155.884 391.604L155.466 395.32C155.385 396.034 155.733 396.678 156.197 396.674L160.494 396.641Z" fill="#E87B50"/>
<path d="M104.646 232.501L103.727 244.767L113.357 244.248L112.246 233.389L104.646 232.501Z" fill="#FFC0BB"/>
<path d="M112.775 238.552L112.248 233.387L104.648 232.501L104.33 236.748C105.84 238.441 108.557 240.194 112.775 238.552Z" fill="#F99893"/>
<path d="M118.678 224.239C118.1 225.584 118.406 227.098 119.364 227.618C120.322 228.138 121.568 227.47 122.146 226.124C122.724 224.779 122.419 223.265 121.461 222.745C120.503 222.223 119.258 222.891 118.678 224.239Z" fill="#F99893"/>
<path d="M117.87 232.296C118.209 231.723 118.505 231.109 118.749 230.461C119.438 228.725 119.842 226.86 120.076 225.224C120.127 224.873 120.195 224.527 120.269 224.182C120.57 222.786 120.649 221.29 120.441 219.729C119.772 214.71 116.179 210.711 111.706 210.016C105.682 209.079 100.374 214.094 99.9976 220.733C99.3772 220.286 98.6619 220.142 98.0081 220.416C96.755 220.94 96.2119 222.794 96.7954 224.556C97.3789 226.315 98.8675 227.317 100.121 226.793C100.295 226.72 100.453 226.62 100.599 226.498C100.792 232.184 104.666 236.839 109.611 237.1C112.03 237.228 114.279 236.279 116.028 234.62C116.144 234.525 116.267 234.411 116.396 234.279C116.967 233.696 117.452 233.023 117.87 232.296Z" fill="#FFC0BB"/>
<path d="M109.161 222.391C109.139 222.948 108.718 223.379 108.223 223.353C107.727 223.326 107.344 222.853 107.367 222.296C107.39 221.739 107.81 221.308 108.305 221.335C108.803 221.361 109.184 221.835 109.161 222.391Z" fill="#333333"/>
<path d="M116.844 223.365C116.821 223.921 116.401 224.352 115.905 224.326C115.409 224.299 115.026 223.828 115.049 223.271C115.072 222.714 115.492 222.284 115.988 222.31C116.483 222.334 116.866 222.808 116.844 223.365Z" fill="#333333"/>
<path d="M110.29 220.111C109.833 219.953 109.402 219.831 108.977 219.758C108.552 219.685 108.135 219.67 107.729 219.727C107.325 219.788 106.919 219.886 106.529 220.085C106.321 220.158 106.14 220.296 105.931 220.394C105.729 220.508 105.541 220.652 105.316 220.762C105.428 220.528 105.56 220.298 105.715 220.089C105.884 219.898 106.047 219.685 106.258 219.538C106.653 219.201 107.149 219.008 107.65 218.937C108.154 218.868 108.669 218.951 109.126 219.156C109.58 219.368 109.996 219.679 110.29 220.111Z" fill="#07085B"/>
<path d="M165.719 364.48H59.82C59.4457 364.48 59.1416 364.128 59.1416 363.693V361.553C59.1416 361.121 59.4457 360.767 59.82 360.767H165.719C166.093 360.767 166.397 361.119 166.397 361.553V363.695C166.397 364.128 166.093 364.48 165.719 364.48Z" fill="#3D3A55"/>
<path d="M114.246 220.613C114.608 220.254 115.07 220.038 115.554 219.931C116.037 219.829 116.557 219.859 117.039 220.036C117.517 220.215 117.972 220.514 118.301 220.93C118.483 221.119 118.605 221.365 118.738 221.589C118.852 221.828 118.942 222.082 119.012 222.336C118.81 222.178 118.65 221.995 118.473 221.841C118.285 221.698 118.13 221.524 117.94 221.408C117.592 221.127 117.211 220.942 116.824 220.794C116.436 220.652 116.025 220.573 115.596 220.552C115.165 220.532 114.722 220.556 114.246 220.613Z" fill="#07085B"/>
<path d="M100.142 220.896C99.5705 220.296 99.1171 220.319 99.1171 220.319L99.5072 216.809L100.555 214.731C100.555 214.731 104.567 209.191 104.706 209.055C104.845 208.919 107.819 207.202 108.001 207.114C108.184 207.027 112.237 207.897 112.237 207.897C112.237 207.897 119.464 206.566 118.107 210.725C116.75 214.885 111.439 216.866 111.177 216.667C112.06 215.761 112.241 213.08 112.241 213.08C108.374 217.437 101.251 220.445 100.142 220.896Z" fill="#07085B"/>
<path d="M112.337 222.308C112.599 222.784 112.824 223.281 113.026 223.792C113.23 224.302 113.408 224.824 113.547 225.368C113.612 225.643 113.67 225.919 113.685 226.22C113.687 226.295 113.687 226.372 113.678 226.454C113.675 226.494 113.664 226.539 113.657 226.58C113.641 226.624 113.631 226.669 113.603 226.716C113.589 226.738 113.573 226.76 113.557 226.783L113.518 226.821C113.492 226.846 113.467 226.872 113.441 226.894C113.387 226.937 113.334 226.982 113.278 227.016C113.056 227.169 112.822 227.277 112.587 227.37C112.35 227.459 112.109 227.537 111.863 227.583C112.309 227.344 112.761 227.106 113.144 226.795C113.193 226.756 113.235 226.714 113.279 226.671L113.341 226.606L113.371 226.573C113.373 226.567 113.376 226.561 113.38 226.555C113.409 226.5 113.413 226.36 113.401 226.24C113.378 225.986 113.322 225.72 113.255 225.46C113.126 224.934 112.965 224.413 112.808 223.889C112.647 223.367 112.485 222.843 112.337 222.308Z" fill="#F99893"/>
<path d="M114.369 241.743C114.369 241.743 121.909 242.11 125.851 247.656C129.793 253.202 140.973 307.608 140.973 307.608L128.399 306.056C128.399 306.056 112.049 280.212 112.049 279.545C112.049 278.881 114.369 241.743 114.369 241.743Z" fill="#050849"/>
<path d="M99.5494 241.83C99.5494 241.83 113.984 241.798 114.207 241.814C114.43 241.83 115.538 241.694 115.945 242.188C116.353 242.682 117.056 245.398 115.049 246.73C113.042 248.061 117.309 248.115 111.863 249.225C106.416 250.334 108.049 251.832 103.92 249.891C99.7919 247.951 99.2594 248.782 99.1188 247.063C98.9747 245.342 99.5494 241.83 99.5494 241.83Z" fill="#FFC0BB"/>
<path d="M128.238 266.528C127.401 257.798 125.375 251.942 123.104 248.018C121.406 245.086 118.835 243.047 115.946 242.186C115.933 242.243 115.214 245.346 111.504 245.839C107.761 246.339 99.6936 241.818 99.5495 241.828C95.3823 242.127 91.7794 243.033 89.9023 245.563C86.1588 250.611 73.7734 285.853 74.0616 290.831C74.3498 295.81 77.6628 295.81 77.6628 295.81L111.583 295.828V304.849L136.189 306.791C135.5 306.267 130.609 291.262 128.238 266.528Z" fill="#07085B"/>
<path d="M130.962 263.102C131.178 263.11 139.918 256.991 139.918 256.991L141.551 257.392L140.971 257.886L141.948 257.603L143.537 257.886C143.537 257.886 138.284 265.049 138.196 265.252C138.108 265.455 135.813 266.475 135.635 266.577C135.461 266.68 130.962 263.102 130.962 263.102Z" fill="#DAEEF7"/>
<path d="M116.977 258.215L117.771 257.642L118.135 257.928V257.392L118.633 256.991L131.345 262.805C131.345 262.805 127.273 265.788 127.141 265.675C127.009 265.559 119.759 264.031 119.626 263.801C119.492 263.569 116.977 258.215 116.977 258.215Z" fill="#DAEEF7"/>
<path d="M117.178 257.942L131.586 263.333L143.205 257.489C143.91 257.134 144.683 257.794 144.599 258.676L142.386 281.557C142.349 281.937 142.152 282.272 141.859 282.451L130.702 289.246L120.596 284.924L120.336 284.483L119.026 284.254L114.789 282.441C114.411 282.278 114.172 281.846 114.207 281.38L115.873 258.944C115.928 258.202 116.566 257.715 117.178 257.942Z" fill="#FEB546"/>
<path d="M117.177 257.942C116.566 257.713 115.928 258.202 115.873 258.942L114.209 281.35C114.174 281.831 114.42 282.282 114.813 282.451L119.026 284.254L120.336 284.483L120.596 284.924L127.392 287.832C128.956 287.485 130.507 287.147 130.507 287.147L131.584 263.335L117.177 257.942Z" fill="#F4A640"/>
<path d="M133.737 266.069L142.722 261.529L142.435 266.248L133.628 270.964L133.737 266.069Z" fill="#F4A640"/>
<path d="M138.59 304.905C138.59 304.905 169.013 303.796 175.925 311.339C182.838 318.882 176.117 374.579 174.966 379.783C174.966 379.783 170.74 384.323 165.749 382.549C160.756 380.775 162.677 355.929 162.677 355.929C162.677 355.929 163.253 332.192 162.485 328.864C161.717 325.535 151.156 323.097 151.156 323.097C151.156 323.097 134.834 310.008 135.795 310.008C136.753 310.008 138.59 304.905 138.59 304.905Z" fill="#2B1C35"/>
<path d="M111.582 303.839C111.582 303.839 152.307 298.251 157.877 319.547C163.445 340.843 167.67 382.992 167.67 382.992C167.67 382.992 162.294 386.763 154.996 382.992C154.996 382.992 144.676 337.738 140.811 333.3C136.946 328.864 111.582 331.568 111.582 331.568V303.839Z" fill="#3A2645"/>
<path d="M122.049 290.299C121.895 289.283 121.675 288.281 121.425 287.294C121.172 286.306 120.891 285.331 120.555 284.369L120.519 284.262L120.417 284.256L93.2415 282.683C93.3435 281.73 93.5948 280.795 93.869 279.879C94.1572 278.928 94.4876 277.993 94.8321 277.064C95.5263 275.211 96.2873 273.392 97.073 271.588C98.653 267.983 100.335 264.435 102.085 260.936L102.057 260.917C100.286 264.404 98.5827 267.938 96.9798 271.533C96.1819 273.333 95.4086 275.148 94.702 277.001C94.3505 277.928 94.0148 278.865 93.7178 279.818C93.4261 280.773 93.1572 281.746 93.0552 282.77L93.0447 282.874L93.1361 282.88L120.294 284.621C120.606 285.528 120.877 286.46 121.116 287.399C121.362 288.377 121.578 289.366 121.731 290.366C121.881 291.366 122.005 292.376 122.009 293.388C122.02 294.353 121.955 295.324 121.733 296.249L113.691 295.979L109.61 295.847L105.527 295.767L105.525 295.812L109.604 295.999L113.684 296.2L121.842 296.592L121.955 296.598L121.988 296.474C122.255 295.469 122.338 294.42 122.334 293.384C122.329 292.341 122.201 291.315 122.049 290.299Z" fill="white"/>
<path d="M130.649 263.008L129.607 288.098L131.197 287.832L132.317 263.008C132.317 263.008 131.477 262.334 130.649 263.008Z" fill="#ED9935"/>
<path d="M131.809 286.743C129.793 287.769 125.702 287.023 125.702 287.023L122.605 285.778C122.173 286.119 121.731 286.464 121.296 286.8C121.339 286.962 121.383 287.127 121.426 287.291C121.675 288.279 121.895 289.281 122.05 290.297C122.201 291.313 122.329 292.339 122.332 293.38C122.332 293.55 122.327 293.719 122.324 293.89L122.76 293.703C123.287 293.827 124.241 293.721 125.563 293.485C127.073 293.262 129.459 292.878 130.502 292.53C131.254 292.28 131.579 291.725 131.718 291.211C132.312 290.793 132.368 290.012 132.296 289.391C132.314 289.35 132.328 289.311 132.338 289.271C132.628 288.224 132.466 287.952 132.319 287.846C132.424 287.72 132.498 287.584 132.532 287.434C132.865 285.883 131.809 286.743 131.809 286.743Z" fill="#FFC0BB"/>
<path d="M132.317 289.309C132.075 289.636 131.762 289.884 131.435 290.094C131.106 290.303 130.753 290.453 130.393 290.569C130.029 290.673 129.66 290.746 129.285 290.764C129.099 290.781 128.913 290.768 128.726 290.77C128.54 290.754 128.356 290.736 128.173 290.709C128.544 290.689 128.911 290.675 129.275 290.622C129.639 290.571 129.997 290.496 130.35 290.39C130.702 290.281 131.046 290.14 131.379 289.968C131.709 289.789 132.031 289.58 132.317 289.309Z" fill="#F99893"/>
<path d="M131.721 291.218C131.458 291.522 131.127 291.742 130.788 291.919C130.447 292.097 130.083 292.215 129.716 292.299C129.347 292.37 128.972 292.406 128.6 292.392C128.414 292.39 128.227 292.362 128.043 292.347C127.858 292.315 127.675 292.278 127.494 292.236C127.865 292.248 128.233 292.268 128.598 292.248C128.964 292.229 129.327 292.189 129.686 292.116C130.045 292.038 130.396 291.931 130.741 291.789C131.082 291.638 131.415 291.459 131.721 291.218Z" fill="#F99893"/>
<path d="M132.317 287.848C132.075 288.175 131.762 288.423 131.435 288.633C131.106 288.842 130.753 288.992 130.393 289.108C130.029 289.212 129.66 289.285 129.286 289.303C129.099 289.319 128.913 289.307 128.727 289.309C128.54 289.293 128.356 289.275 128.173 289.248C128.544 289.228 128.911 289.214 129.275 289.161C129.639 289.11 129.997 289.035 130.351 288.929C130.702 288.82 131.047 288.681 131.379 288.507C131.709 288.326 132.031 288.116 132.317 287.848Z" fill="#F99893"/>
<path d="M108.696 229.634C109.541 229.747 110.363 229.914 111.191 230.048C112.019 230.186 112.838 230.302 113.687 230.341C112.859 230.599 111.982 230.55 111.146 230.418C110.305 230.27 109.476 230.032 108.696 229.634Z" fill="#F99893"/>
<path d="M61.314 397.856H58.2383L65.9064 363.045L68.7941 363.894L61.314 397.856Z" fill="#3D3A55"/>
<path d="M117.691 397.856H114.617L122.285 363.045L125.173 363.894L117.691 397.856Z" fill="#3D3A55"/>
<path d="M98.7656 397.856H101.839L94.1713 363.045L91.2837 363.894L98.7656 397.856Z" fill="#3D3A55"/>
<path d="M544.939 119.516H450.462V125.764H544.939V119.516Z" fill="#4188E4"/>
<path d="M558.832 172.734H464.356V178.982H558.832V172.734Z" fill="#4188E4"/>
<path d="M216.066 115.387H213.387V368.225H216.066V115.387Z" fill="#09083C"/>
<path d="M244.757 115.387H242.079V368.225H244.757V115.387Z" fill="#09083C"/>
<path d="M243.418 119.233H214.726V121.851H243.418V119.233Z" fill="#09083C"/>
<path d="M243.418 136.203H214.726V138.82H243.418V136.203Z" fill="#09083C"/>
<path d="M243.418 153.173H214.726V155.79H243.418V153.173Z" fill="#09083C"/>
<path d="M243.418 170.143H214.726V172.76H243.418V170.143Z" fill="#09083C"/>
<path d="M243.418 187.113H214.726V189.73H243.418V187.113Z" fill="#09083C"/>
<path d="M243.418 204.082H214.726V206.7H243.418V204.082Z" fill="#09083C"/>
<path d="M243.418 221.052H214.726V223.669H243.418V221.052Z" fill="#09083C"/>
<path d="M243.418 238.02H214.726V240.637H243.418V238.02Z" fill="#09083C"/>
<path d="M243.418 254.99H214.726V257.607H243.418V254.99Z" fill="#09083C"/>
<path d="M243.418 271.96H214.726V274.577H243.418V271.96Z" fill="#09083C"/>
<path d="M243.418 288.929H214.726V291.547H243.418V288.929Z" fill="#09083C"/>
<path d="M243.418 305.899H214.727V308.516H243.418V305.899Z" fill="#09083C"/>
<path d="M243.418 322.869H214.727V325.486H243.418V322.869Z" fill="#09083C"/>
<path d="M577.064 104.195C591.388 104.195 603 92.7654 603 78.6658C603 64.5662 591.388 53.1362 577.064 53.1362C562.739 53.1362 551.127 64.5662 551.127 78.6658C551.127 92.7654 562.739 104.195 577.064 104.195Z" fill="#4188E4"/>
<path d="M599.864 77.2565C600.655 89.6509 591.087 100.329 578.494 101.109C565.901 101.886 555.052 92.4694 554.261 80.0734C553.47 67.6791 563.038 57.0005 575.631 56.2214C588.226 55.444 599.073 64.8622 599.864 77.2565Z" fill="white"/>
<path d="M554.628 75.1783V75.6766H562.319V75.1783H554.628Z" fill="#B0C1EC"/>
<path d="M591.856 75.1786V75.677H599.547V75.1786H591.856Z" fill="#B0C1EC"/>
<path d="M577.325 56.7373H576.735V63.2222H577.325V56.7373Z" fill="#B0C1EC"/>
<path d="M577.325 88.0063H576.735V94.4913H577.325V88.0063Z" fill="#B0C1EC"/>
<path d="M577.7 75.5245C577.7 75.8212 577.415 76.0614 577.063 76.0614C576.712 76.0614 576.427 75.8212 576.427 75.5245C576.427 75.2278 576.712 74.9875 577.063 74.9875C577.415 74.9875 577.7 75.2278 577.7 75.5245Z" fill="#B0C1EC"/>
<path d="M577.063 75.7649C576.991 75.7649 576.918 75.7412 576.863 75.6952L565.423 66.0479C565.313 65.9545 565.313 65.8017 565.423 65.7083C565.534 65.6148 565.715 65.6148 565.826 65.7083L577.266 75.3555C577.376 75.449 577.376 75.6018 577.266 75.6952C577.209 75.7412 577.136 75.7649 577.063 75.7649Z" fill="#B0C1EC"/>
<path d="M580.74 85.2727C580.693 85.2519 580.654 85.2178 580.637 85.1718L576.939 75.753C576.902 75.661 576.962 75.5631 577.07 75.532C577.179 75.5023 577.295 75.5512 577.332 75.6432L581.03 85.0621C581.065 85.154 581.007 85.2519 580.898 85.2831C580.844 85.2979 580.788 85.2934 580.74 85.2727Z" fill="#B0C1EC"/>
</svg>
